<svg xmlns="http://www.w3.org/2000/svg" viewBox="0 0 900 520" fill="none">
  <rect width="900" height="520" fill="#FFFFFF"/>
  <!-- Excel -->
  <rect x="60" y="200" width="150" height="100" rx="16" fill="#E8F8F3" stroke="#1A1D24" stroke-width="4"/>
  <text x="135" y="258" text-anchor="middle" font-family="PingFang SC, Noto Sans SC, sans-serif" font-size="20" font-weight="700" fill="#1A1D24">Excel</text>
  <!-- Arrow -->
  <path d="M220 250 H300" stroke="#1A1D24" stroke-width="4"/>
  <path d="M288 238 L308 250 L288 262" stroke="#1A1D24" stroke-width="4" fill="none" stroke-linecap="round"/>
  <!-- Parse -->
  <rect x="320" y="185" width="180" height="130" rx="16" fill="#FFFFFF" stroke="#1A1D24" stroke-width="4"/>
  <text x="410" y="235" text-anchor="middle" font-family="PingFang SC, Noto Sans SC, sans-serif" font-size="18" font-weight="700" fill="#1A1D24">结构识别</text>
  <text x="410" y="265" text-anchor="middle" font-family="PingFang SC, Noto Sans SC, sans-serif" font-size="14" fill="#8B92A3">表头 / 纯数据</text>
  <!-- Arrow -->
  <path d="M510 250 H590" stroke="#1A1D24" stroke-width="4"/>
  <path d="M578 238 L598 250 L578 262" stroke="#1A1D24" stroke-width="4" fill="none" stroke-linecap="round"/>
  <!-- Fit -->
  <rect x="610" y="185" width="220" height="130" rx="16" fill="#5B52E8" stroke="#1A1D24" stroke-width="4"/>
  <text x="720" y="235" text-anchor="middle" font-family="PingFang SC, Noto Sans SC, sans-serif" font-size="18" font-weight="700" fill="#FFFFFF">对数正态拟合</text>
  <text x="720" y="265" text-anchor="middle" font-family="PingFang SC, Noto Sans SC, sans-serif" font-size="14" fill="#EDEBFF">SciPy · GSD · R²</text>
  <!-- Outputs -->
  <path d="M620 315 V360 H200" stroke="#1A1D24" stroke-width="3"/>
  <path d="M200 360 V390" stroke="#1A1D24" stroke-width="3"/>
  <path d="M620 315 V360 H420" stroke="#1A1D24" stroke-width="3"/>
  <path d="M420 360 V390" stroke="#1A1D24" stroke-width="3"/>
  <path d="M620 315 V360 H640" stroke="#1A1D24" stroke-width="3"/>
  <path d="M640 360 V390" stroke="#1A1D24" stroke-width="3"/>
  <rect x="120" y="390" width="160" height="70" rx="14" fill="#FFF0EB" stroke="#1A1D24" stroke-width="3"/>
  <text x="200" y="432" text-anchor="middle" font-family="PingFang SC, Noto Sans SC, sans-serif" font-size="16" font-weight="700" fill="#1A1D24">图表 PNG</text>
  <rect x="340" y="390" width="160" height="70" rx="14" fill="#EDEBFF" stroke="#1A1D24" stroke-width="3"/>
  <text x="420" y="432" text-anchor="middle" font-family="PingFang SC, Noto Sans SC, sans-serif" font-size="16" font-weight="700" fill="#1A1D24">PDF 报告</text>
  <rect x="560" y="390" width="160" height="70" rx="14" fill="#E8F8F3" stroke="#1A1D24" stroke-width="3"/>
  <text x="640" y="432" text-anchor="middle" font-family="PingFang SC, Noto Sans SC, sans-serif" font-size="16" font-weight="700" fill="#1A1D24">历史记录</text>
  <!-- Streamlit / FastAPI -->
  <rect x="610" y="60" width="220" height="56" rx="14" fill="#FFFFFF" stroke="#1A1D24" stroke-width="3"/>
  <text x="720" y="95" text-anchor="middle" font-family="PingFang SC, Noto Sans SC, sans-serif" font-size="16" font-weight="700" fill="#1A1D24">Streamlit / FastAPI</text>
  <path d="M720 116 V185" stroke="#1A1D24" stroke-width="3"/>
</svg>
