<svg xmlns="http://www.w3.org/2000/svg" viewBox="0 0 960 600" fill="none">
  <rect width="960" height="600" fill="#EDEBFF"/>
  <!-- 装饰 -->
  <circle cx="820" cy="90" r="70" fill="#5B52E8" opacity="0.12"/>
  <rect x="40" y="460" width="100" height="70" rx="14" fill="#3DBF9F" opacity="0.15"/>
  <!-- 主界面框 -->
  <rect x="90" y="70" width="780" height="460" rx="24" fill="#FFFFFF" stroke="#1A1D24" stroke-width="6"/>
  <rect x="76" y="56" width="18" height="18" fill="#FFF" stroke="#1A1D24" stroke-width="3"/>
  <rect x="858" y="56" width="18" height="18" fill="#FFF" stroke="#1A1D24" stroke-width="3"/>
  <rect x="76" y="518" width="18" height="18" fill="#FFF" stroke="#1A1D24" stroke-width="3"/>
  <rect x="858" y="518" width="18" height="18" fill="#FFF" stroke="#1A1D24" stroke-width="3"/>
  <!-- 顶栏 -->
  <rect x="120" y="100" width="720" height="44" rx="12" fill="#F6F4EF" stroke="#1A1D24" stroke-width="3"/>
  <circle cx="148" cy="122" r="7" fill="#FF6B4A"/>
  <circle cx="172" cy="122" r="7" fill="#FFD166"/>
  <circle cx="196" cy="122" r="7" fill="#3DBF9F"/>
  <!-- 侧栏 -->
  <rect x="120" y="166" width="170" height="330" rx="16" fill="#F6F4EF" stroke="#1A1D24" stroke-width="3"/>
  <rect x="140" y="190" width="120" height="28" rx="8" fill="#5B52E8"/>
  <rect x="140" y="234" width="120" height="28" rx="8" fill="#FFFFFF" stroke="#1A1D24" stroke-width="2"/>
  <rect x="140" y="278" width="120" height="28" rx="8" fill="#FFFFFF" stroke="#1A1D24" stroke-width="2"/>
  <rect x="140" y="322" width="120" height="28" rx="8" fill="#FFFFFF" stroke="#1A1D24" stroke-width="2"/>
  <!-- 对话区 -->
  <rect x="310" y="166" width="330" height="330" rx="16" fill="#FFFFFF" stroke="#1A1D24" stroke-width="3"/>
  <rect x="330" y="190" width="200" height="54" rx="14" fill="#EDEBFF" stroke="#1A1D24" stroke-width="2"/>
  <rect x="430" y="260" width="180" height="54" rx="14" fill="#5B52E8"/>
  <rect x="330" y="330" width="250" height="70" rx="14" fill="#F6F4EF" stroke="#1A1D24" stroke-width="2"/>
  <rect x="348" y="352" width="160" height="10" rx="5" fill="#1A1D24" opacity="0.55"/>
  <rect x="348" y="372" width="120" height="10" rx="5" fill="#1A1D24" opacity="0.3"/>
  <!-- 工具轨迹 -->
  <rect x="660" y="166" width="180" height="330" rx="16" fill="#FFFFFF" stroke="#1A1D24" stroke-width="3"/>
  <rect x="680" y="190" width="140" height="36" rx="10" fill="#E8F8F3" stroke="#1A1D24" stroke-width="2"/>
  <rect x="680" y="240" width="140" height="36" rx="10" fill="#FFF0EB" stroke="#1A1D24" stroke-width="2"/>
  <rect x="680" y="290" width="140" height="36" rx="10" fill="#EDEBFF" stroke="#1A1D24" stroke-width="2"/>
  <rect x="680" y="340" width="140" height="36" rx="10" fill="#F6F4EF" stroke="#1A1D24" stroke-width="2"/>
  <!-- 徽章 -->
  <rect x="400" y="520" width="160" height="32" rx="16" fill="#1A1D24"/>
</svg>
